<svg width="1342" height="836" viewBox="0 0 1342 836" fill="none" xmlns="http://www.w3.org/2000/svg">
<path d="M28.9658 557.668C28.9658 404.214 147.862 279.815 294.528 279.815H1075.52C1222.19 279.815 1341.08 404.214 1341.08 557.668C1341.08 711.122 1222.19 835.521 1075.52 835.521H294.528C147.862 835.521 28.9658 711.122 28.9658 557.668Z" fill="#F6F6F6"/>
<path d="M572.76 548.811C572.76 702.265 444.692 826.665 286.711 826.665C128.731 826.665 0.663086 702.265 0.663086 548.811C0.663086 395.357 128.731 270.958 286.711 270.958C444.692 270.958 572.76 395.357 572.76 548.811Z" fill="#F6F6F6"/>
<path d="M772.237 274.88C772.237 426.168 645.61 548.811 489.408 548.811C333.205 548.811 206.578 426.168 206.578 274.88C206.578 123.592 333.205 0.949341 489.408 0.949341C645.61 0.949341 772.237 123.592 772.237 274.88Z" fill="#F6F6F6"/>
<path d="M1163.86 249.97C1163.86 363.695 1063.25 455.886 939.145 455.886C815.036 455.886 714.425 363.695 714.425 249.97C714.425 136.246 815.036 44.0547 939.145 44.0547C1063.25 44.0547 1163.86 136.246 1163.86 249.97Z" fill="#F6F6F6"/>
</svg>
