<svg width="340" height="103" viewBox="0 0 340 103" fill="none" xmlns="http://www.w3.org/2000/svg">
<path d="M58.6778 96.7579C74.8774 93.7691 88.2573 91.2959 88.411 91.2619L88.6904 91.2L73.3964 72.2005C64.9847 61.7508 58.1024 53.1605 58.1024 53.111C58.1024 53.0173 73.8948 7.5976 73.9835 7.43601C74.0132 7.38199 84.7604 26.7605 100.035 54.4109C114.336 80.2977 126.126 101.641 126.236 101.841L126.435 102.205L77.8296 102.199L29.2241 102.192L58.6778 96.7579V96.7579ZM245.074 92.163C237.676 91.6675 233.373 87.2675 232.232 79.0315C231.929 76.8407 231.928 76.7838 231.897 62.5606L231.867 48.7949H235.141H238.416L238.441 62.1099C238.465 74.1103 238.479 75.5173 238.589 76.3615C239.035 79.7876 239.923 82.0916 241.434 83.7453C242.643 85.0688 244.059 85.8438 246.019 86.255C246.943 86.449 249.573 86.4494 250.416 86.2558C252.403 85.7992 253.996 84.8962 255.4 83.4296C257.001 81.758 258.186 79.3864 258.759 76.7045L258.952 75.8006L258.974 62.3729L258.995 48.9453H262.338H265.681V70.0539V91.1626H262.373H259.064V87.8135C259.064 85.5379 259.04 84.4727 258.99 84.4904C258.949 84.5046 258.779 84.7761 258.612 85.0937C257.472 87.2654 255.572 89.2514 253.491 90.4479C250.996 91.8821 248.493 92.3921 245.074 92.1631L245.074 92.163ZM320.172 92.1288C317.56 91.9238 314.81 90.986 312.563 89.5339C307.825 86.4733 305.022 81.4285 304.201 74.4858C303.917 72.0834 303.883 68.8564 304.12 66.815C304.65 62.2536 306.366 57.7758 308.81 54.5791C309.436 53.7596 310.858 52.2752 311.642 51.6209C313.761 49.8541 316.239 48.6186 318.871 48.0174C320.404 47.6671 323.104 47.5027 324.733 47.6603C328.825 48.0564 332.575 50.0686 335.124 53.2355C337.714 56.4532 339.137 60.9492 339.319 66.4856C339.347 67.3532 339.354 68.8744 339.334 69.866L339.298 71.6689L324.966 71.6878L310.635 71.7068V72.3747C310.635 74.408 311.109 76.7239 311.927 78.6943C312.632 80.3935 313.847 82.249 314.842 83.1469C316.881 84.988 319.376 86.0899 322.107 86.3551C323.12 86.4535 325.701 86.35 326.855 86.1648C330.147 85.6364 333.277 84.2877 335.804 82.3085C336.102 82.0756 336.386 81.8581 336.437 81.825C336.511 81.7767 336.528 82.3851 336.526 84.9425L336.524 88.1201L335.847 88.5575C332.987 90.4045 329.712 91.5905 326.243 92.0345C325.208 92.167 321.41 92.226 320.172 92.1288L320.172 92.1288ZM332.645 65.3292C332.645 61.9232 331.27 58.1396 329.325 56.1913C327.938 54.8009 326.26 53.9512 324.265 53.6286C323.322 53.4759 321.333 53.5347 320.338 53.7447C318.235 54.1885 316.495 55.1542 314.978 56.72C313.381 58.368 312.184 60.3696 311.431 62.6501C311.16 63.4701 310.843 64.8165 310.745 65.5654L310.698 65.9222H321.671H332.645V65.3292ZM138.243 91.0686C138.26 91.0169 143.127 77.6645 149.058 61.3965L159.842 31.8183L163.307 31.8181L166.772 31.8178L167.059 32.5878C167.938 34.9408 188.648 91.0983 188.648 91.1275C188.648 91.1467 186.99 91.1622 184.962 91.1619L181.276 91.1611L178.291 82.8611L175.306 74.5611L163.287 74.5609L151.269 74.5608L151.164 74.8425C151.107 74.9974 149.831 78.7321 148.33 83.1419L145.601 91.1596L141.907 91.1609C138.983 91.162 138.219 91.1427 138.243 91.0684V91.0686ZM173.112 68.227C173.112 68.2138 171.104 62.5263 168.648 55.5881C164.055 42.6078 163.798 41.8268 163.435 39.7429C163.265 38.7657 163.179 38.7386 163.078 39.6302C163.006 40.2676 162.693 41.6937 162.452 42.4848C162.332 42.8773 160.263 48.8063 157.855 55.6604C155.447 62.5145 153.477 68.1513 153.477 68.1866C153.477 68.222 157.895 68.2509 163.294 68.2509C168.694 68.2509 173.112 68.2401 173.112 68.227V68.227ZM190.878 90.0815V89.0005L202.852 71.8086L214.827 54.6166L203.985 54.5791L193.144 54.5415L193.125 51.6682L193.106 48.7949H208.787H224.468V49.7653V50.7358L212.492 68.0215C205.905 77.5286 200.516 85.3231 200.516 85.3427C200.516 85.3622 205.841 85.3782 212.348 85.3782H224.18V88.2703V91.1625H207.529H190.878V90.0815ZM278.748 91.1124C278.722 91.0848 278.7 81.5521 278.7 69.9286V48.7949H281.973H285.245V53.1518C285.245 55.5481 285.273 57.5088 285.307 57.5088C285.341 57.5088 285.501 57.1165 285.661 56.6371C286.397 54.4402 287.673 52.3875 289.317 50.756C290.798 49.2863 292.491 48.4074 294.488 48.071C295.049 47.9765 295.524 47.9585 296.646 47.989C298.055 48.0274 298.791 48.1349 299.648 48.4275L299.918 48.5196V52.0674V55.6152L299.145 55.211C297.779 54.4969 296.431 54.2143 294.811 54.3023C293.757 54.3596 293.065 54.501 292.222 54.8314C290.488 55.5112 289.081 56.7111 288.098 58.349C286.675 60.7201 285.66 63.7679 285.361 66.5691C285.307 67.0719 285.275 71.166 285.263 79.2372L285.244 91.1625H282.02C280.247 91.1625 278.774 91.1399 278.748 91.1124ZM0.345703 90.964C0.345703 90.9372 7.55216 77.8719 16.3601 61.9299L32.3744 32.9446L51.0373 16.5872C61.3018 7.59069 69.7278 0.218892 69.7615 0.205448C69.7953 0.192006 69.6603 0.546945 69.4615 0.994206C69.2627 1.44147 60.1433 21.87 49.1962 46.391L29.2925 90.9746L14.8191 90.9936C6.85873 91.004 0.345703 90.9907 0.345703 90.9639V90.964Z" fill="#0089D6"/>
</svg>
