<svg width="45" height="42" viewBox="0 0 45 42" fill="none" xmlns="http://www.w3.org/2000/svg">
<g clip-path="url(#clip0)">
<path d="M41.0807 7.76328H3.67125C1.85127 7.76328 0.375977 9.13798 0.375977 10.8339V31.5549C0.375977 33.2507 1.85127 34.6255 3.67125 34.6255H41.0807C42.9006 34.6255 44.376 33.2508 44.376 31.5549V10.8339C44.376 9.13798 42.9007 7.76328 41.0807 7.76328Z" fill="#41479B"/>
<path d="M1.13463 21.1943H2.4524L9.47951 16.9042V21.1943H13.2726V16.9042L20.2996 21.1943H21.6174C22.0364 21.1943 22.3761 20.8778 22.3761 20.4874V19.9267L16.3471 16.246H22.376V12.7115H16.347L22.376 9.03092V8.47021C22.376 8.07975 22.0363 7.76328 21.6173 7.76328H20.2996L13.2724 12.0534V7.76328H9.47934V12.0534L2.68288 7.90406C1.88934 8.13628 1.2259 8.64102 0.817094 9.30014L6.40501 12.7115H0.375977V16.246H6.40492L0.375977 19.9267V20.4874C0.375977 20.8778 0.715516 21.1943 1.13463 21.1943Z" fill="#F5F5F5"/>
<path d="M22.376 13.4185H12.5139V7.76328H10.2381V13.4185H0.375977V15.5391H10.2381V21.1943H12.5139V15.5391H22.376V13.4185Z" fill="#FF4B55"/>
<path d="M1.08301 8.93451L7.3274 12.7116H8.72079L1.63129 8.42337C1.4277 8.57312 1.24371 8.74473 1.08301 8.93451Z" fill="#FF4B55"/>
<path d="M14.6659 12.7115L22.2605 8.11779C22.1285 7.90966 21.8956 7.76328 21.6173 7.76328H21.4531L13.2725 12.7115H14.6659Z" fill="#FF4B55"/>
<path d="M8.06498 16.246L0.484863 20.831C0.615574 21.0442 0.852074 21.1943 1.13446 21.1943H1.27755L9.45846 16.246H8.06498Z" fill="#FF4B55"/>
<path d="M22.3637 20.5429L15.2596 16.2461H13.8662L21.9335 21.1257C22.1752 21.0212 22.3409 20.8022 22.3637 20.5429Z" fill="#FF4B55"/>
<path d="M11.6056 25.0485L12.1782 26.81L14.0133 26.129C14.1698 26.0708 14.3121 26.2372 14.2166 26.3665L13.0956 27.8819L14.8111 28.794C14.9574 28.8719 14.9067 29.0793 14.7386 29.0902L12.7681 29.2185L13.0724 31.0369C13.0984 31.1921 12.8926 31.2845 12.7787 31.1688L11.4425 29.8132L10.1064 31.1688C9.99241 31.2844 9.78668 31.1921 9.81263 31.0369L10.1169 29.2185L8.14647 29.0902C7.97838 29.0793 7.92751 28.8719 8.07394 28.794L9.78943 27.8819L8.66846 26.3665C8.5729 26.2372 8.71521 26.0708 8.87179 26.129L10.7068 26.81L11.2794 25.0485C11.3285 24.8982 11.5568 24.8982 11.6056 25.0485Z" fill="#F5F5F5"/>
<path d="M34.1733 12.5242L34.453 13.3847L35.3493 13.052C35.4257 13.0237 35.4953 13.1049 35.4486 13.1681L34.9011 13.9084L35.7391 14.354C35.8106 14.392 35.7857 14.4934 35.7036 14.4987L34.7411 14.5613L34.8896 15.4496C34.9024 15.5254 34.8018 15.5705 34.7461 15.514L34.0934 14.8518L33.4407 15.514C33.3851 15.5704 33.2846 15.5253 33.2972 15.4496L33.4458 14.5613L32.4833 14.4987C32.4012 14.4933 32.3763 14.392 32.4478 14.354L33.2858 13.9084L32.7383 13.1681C32.6915 13.1049 32.7611 13.0237 32.8375 13.052L33.734 13.3847L34.0137 12.5242C34.0378 12.4507 34.1495 12.4507 34.1733 12.5242Z" fill="#F5F5F5"/>
<path d="M27.9362 19.1287L28.2159 19.9891L29.1123 19.6565C29.1887 19.6281 29.2584 19.7093 29.2116 19.7725L28.6641 20.5128L29.5021 20.9585C29.5736 20.9964 29.5487 21.0978 29.4666 21.1031L28.5041 21.1657L28.6527 22.054C28.6655 22.1299 28.5649 22.1749 28.5092 22.1184L27.8565 21.4562L27.2038 22.1184C27.1482 22.1749 27.0477 22.1298 27.0603 22.054L27.209 21.1657L26.2465 21.1031C26.1643 21.0977 26.1395 20.9964 26.211 20.9585L27.049 20.5128L26.5015 19.7725C26.4547 19.7093 26.5243 19.6281 26.6007 19.6565L27.4971 19.9891L27.7769 19.1287C27.8008 19.0553 27.9123 19.0553 27.9362 19.1287Z" fill="#F5F5F5"/>
<path d="M40.0743 16.3011L40.354 17.1615L41.2504 16.8288C41.3268 16.8005 41.3964 16.8817 41.3497 16.9449L40.8022 17.6852L41.6402 18.1308C41.7117 18.1688 41.6868 18.2702 41.6047 18.2755L40.6422 18.3381L40.7908 19.2264C40.8036 19.3022 40.703 19.3473 40.6473 19.2908L39.9946 18.6286L39.3419 19.2908C39.2863 19.3472 39.1858 19.3021 39.1985 19.2264L39.3472 18.3381L38.3847 18.2755C38.3025 18.2701 38.2777 18.1688 38.3492 18.1308L39.1872 17.6852L38.6397 16.9449C38.5929 16.8817 38.6625 16.8005 38.7389 16.8288L39.6353 17.1615L39.9151 16.3011C39.9389 16.2277 40.0504 16.2277 40.0743 16.3011Z" fill="#F5F5F5"/>
<path d="M34.1733 27.6114L34.453 28.4719L35.3493 28.1392C35.4257 28.1108 35.4953 28.192 35.4486 28.2552L34.9011 28.9955L35.7391 29.4411C35.8106 29.4791 35.7857 29.5805 35.7036 29.5858L34.7411 29.6484L34.8896 30.5367C34.9024 30.6125 34.8018 30.6576 34.7461 30.6011L34.0934 29.9389L33.4407 30.6011C33.3851 30.6575 33.2846 30.6124 33.2972 30.5367L33.4458 29.6484L32.4833 29.5858C32.4012 29.5805 32.3763 29.4791 32.4478 29.4411L33.2858 28.9955L32.7383 28.2552C32.6915 28.192 32.7611 28.1108 32.8375 28.1392L33.734 28.4719L34.0137 27.6114C34.0378 27.5381 34.1495 27.5381 34.1733 27.6114Z" fill="#F5F5F5"/>
<path d="M36.3375 20.6748L36.1129 21.3023L35.4032 21.3075C35.3113 21.3082 35.2732 21.4174 35.3471 21.4683L35.9181 21.8612L35.704 22.4918C35.6763 22.5735 35.7761 22.641 35.8507 22.5912L36.4282 22.2066L37.0057 22.5912C37.0805 22.6409 37.1802 22.5734 37.1525 22.4918L36.9384 21.8612L37.5094 21.4683C37.5834 21.4173 37.5453 21.3082 37.4534 21.3075L36.7436 21.3023L36.5191 20.6748C36.4899 20.5936 36.3665 20.5936 36.3375 20.6748Z" fill="#F5F5F5"/>
</g>
<defs>
<clipPath id="clip0">
<rect width="44" height="41" fill="white" transform="translate(0.375977 0.694397)"/>
</clipPath>
</defs>
</svg>
