<svg width="45" height="42" viewBox="0 0 45 42" fill="none" xmlns="http://www.w3.org/2000/svg">
<g clip-path="url(#clip0)">
<path d="M41.6881 7.64265H4.27867C2.45869 7.64265 0.983398 9.01735 0.983398 10.7132V31.4342C0.983398 33.13 2.45869 34.5048 4.27867 34.5048H41.6881C43.508 34.5048 44.9834 33.1301 44.9834 31.4342V10.7132C44.9834 9.01735 43.5081 7.64265 41.6881 7.64265Z" fill="#F5F5F5"/>
<path d="M1.16455 9.70899H44.802C44.3554 8.50645 43.1303 7.64265 41.688 7.64265H4.27858C2.83621 7.64265 1.61117 8.50645 1.16455 9.70899Z" fill="#FF4B55"/>
<path d="M44.9834 15.9078H0.983398V17.9741H44.9834V15.9078Z" fill="#FF4B55"/>
<path d="M44.9834 11.775H0.983398V13.8413H44.9834V11.775Z" fill="#FF4B55"/>
<path d="M0.983398 21.3999C0.983398 21.7903 1.32311 22.1068 1.74205 22.1068H44.9834V20.0405H0.983398V21.3999Z" fill="#FF4B55"/>
<path d="M44.9834 28.3063H0.983398V30.3727H44.9834V28.3063Z" fill="#FF4B55"/>
<path d="M44.8021 32.4384H1.16455C1.61117 33.6409 2.83629 34.5047 4.27858 34.5047H41.688C43.1304 34.5047 44.3554 33.6409 44.8021 32.4384Z" fill="#FF4B55"/>
<path d="M44.9834 24.1735H0.983398V26.2398H44.9834V24.1735Z" fill="#FF4B55"/>
<path d="M1.74205 22.1068H20.7076C21.1265 22.1068 21.4663 21.7903 21.4663 21.3999V8.34949C21.4663 7.95903 21.1265 7.64256 20.7076 7.64256H4.27867C2.45869 7.64264 0.983398 9.01734 0.983398 10.7132V21.3999C0.983398 21.7904 1.32311 22.1068 1.74205 22.1068Z" fill="#41479B"/>
<path d="M3.11348 9.26522L3.2814 9.73448L3.81223 9.73824C3.88098 9.7388 3.90943 9.82048 3.85417 9.85852L3.42715 10.1523L3.58733 10.6239C3.60813 10.6849 3.53345 10.7355 3.47751 10.6982L3.04567 10.4107L2.61384 10.6983C2.55789 10.7356 2.48338 10.685 2.50401 10.624L2.66419 10.1524L2.23717 9.8586C2.18191 9.82048 2.21036 9.7388 2.27911 9.73832L2.80994 9.73456L2.97787 9.2653C2.99952 9.20444 3.09165 9.20444 3.11348 9.26522Z" fill="#F5F5F5"/>
<path d="M3.11348 11.7198L3.2814 12.1891L3.81223 12.1929C3.88098 12.1934 3.90943 12.275 3.85417 12.3131L3.42715 12.607L3.58733 13.0786C3.60813 13.1396 3.53345 13.1902 3.47751 13.1529L3.04567 12.8654L2.61384 13.153C2.55789 13.1902 2.48338 13.1397 2.50401 13.0787L2.66419 12.6071L2.23717 12.3132C2.18191 12.2751 2.21036 12.1935 2.27911 12.1929L2.80994 12.1892L2.97787 11.7199C2.99952 11.6591 3.09165 11.6591 3.11348 11.7198Z" fill="#F5F5F5"/>
<path d="M3.11348 14.1746L3.2814 14.6439L3.81223 14.6476C3.88098 14.6482 3.90943 14.7298 3.85417 14.7679L3.42715 15.0618L3.58733 15.5334C3.60813 15.5944 3.53345 15.645 3.47751 15.6077L3.04567 15.3201L2.61384 15.6078C2.55789 15.645 2.48338 15.5946 2.50401 15.5335L2.66419 15.0619L2.23717 14.768C2.18191 14.7299 2.21036 14.6483 2.27911 14.6477L2.80994 14.6439L2.97787 14.1747C2.99952 14.1138 3.09165 14.1138 3.11348 14.1746Z" fill="#F5F5F5"/>
<path d="M3.11348 16.6293L3.2814 17.0986L3.81223 17.1024C3.88098 17.1029 3.90943 17.1846 3.85417 17.2226L3.42715 17.5165L3.58733 17.9881C3.60813 18.0491 3.53345 18.0997 3.47751 18.0624L3.04567 17.7748L2.61384 18.0625C2.55789 18.0997 2.48338 18.0492 2.50401 17.9882L2.66419 17.5166L2.23717 17.2227C2.18191 17.1848 2.21036 17.103 2.27911 17.1024L2.80994 17.0987L2.97787 16.6294C2.99952 16.5686 3.09165 16.5686 3.11348 16.6293Z" fill="#F5F5F5"/>
<path d="M3.11348 19.084L3.2814 19.5533L3.81223 19.5571C3.88098 19.5576 3.90943 19.6392 3.85417 19.6773L3.42715 19.9712L3.58733 20.4428C3.60813 20.5038 3.53345 20.5544 3.47751 20.5171L3.04567 20.2296L2.61384 20.5172C2.55789 20.5544 2.48338 20.5039 2.50401 20.4429L2.66419 19.9713L2.23717 19.6774C2.18191 19.6393 2.21036 19.5577 2.27911 19.5571L2.80994 19.5534L2.97787 19.0841C2.99952 19.0233 3.09165 19.0233 3.11348 19.084Z" fill="#F5F5F5"/>
<path d="M5.1584 10.4686L5.32632 10.9378L5.85716 10.9416C5.92591 10.9422 5.95435 11.0238 5.89909 11.0619L5.47207 11.3558L5.63226 11.8274C5.65305 11.8884 5.57837 11.939 5.52243 11.9017L5.09059 11.614L4.65876 11.9017C4.60281 11.9389 4.5283 11.8884 4.54893 11.8274L4.70912 11.3558L4.28209 11.0619C4.22684 11.0238 4.25528 10.9422 4.32403 10.9416L4.85487 10.9378L5.02279 10.4686C5.04445 10.4079 5.13666 10.4079 5.1584 10.4686Z" fill="#F5F5F5"/>
<path d="M5.1584 12.9234L5.32632 13.3926L5.85716 13.3964C5.92591 13.397 5.95435 13.4786 5.89909 13.5167L5.47207 13.8106L5.63226 14.2822C5.65305 14.3432 5.57837 14.3938 5.52243 14.3565L5.09059 14.0688L4.65876 14.3565C4.60281 14.3937 4.5283 14.3433 4.54893 14.2822L4.70912 13.8106L4.28209 13.5167C4.22684 13.4787 4.25528 13.397 4.32403 13.3964L4.85487 13.3926L5.02279 12.9234C5.04445 12.8626 5.13666 12.8626 5.1584 12.9234Z" fill="#F5F5F5"/>
<path d="M5.1584 15.3781L5.32632 15.8474L5.85716 15.8511C5.92591 15.8517 5.95435 15.9333 5.89909 15.9714L5.47207 16.2653L5.63226 16.7369C5.65305 16.7979 5.57837 16.8485 5.52243 16.8112L5.09059 16.5235L4.65876 16.8112C4.60281 16.8484 4.5283 16.7979 4.54893 16.7369L4.70912 16.2653L4.28209 15.9714C4.22684 15.9333 4.25528 15.8517 4.32403 15.8511L4.85487 15.8474L5.02279 15.3781C5.04445 15.3173 5.13666 15.3173 5.1584 15.3781Z" fill="#F5F5F5"/>
<path d="M5.1584 17.8328L5.32632 18.3021L5.85716 18.3058C5.92591 18.3064 5.95435 18.388 5.89909 18.4261L5.47207 18.72L5.63226 19.1916C5.65305 19.2526 5.57837 19.3032 5.52243 19.2659L5.09059 18.9783L4.65876 19.2659C4.60281 19.3032 4.5283 19.2526 4.54893 19.1916L4.70912 18.72L4.28209 18.4261C4.22684 18.388 4.25528 18.3064 4.32403 18.3058L4.85487 18.3021L5.02279 17.8328C5.04445 17.7721 5.13666 17.7721 5.1584 17.8328Z" fill="#F5F5F5"/>
<path d="M7.20283 9.2651L7.37075 9.73436L7.90159 9.73812C7.97034 9.73868 7.99878 9.82036 7.94353 9.8584L7.5165 10.1522L7.67669 10.6238C7.69749 10.6848 7.62281 10.7354 7.56686 10.6981L7.13503 10.4105L6.70319 10.6981C6.64724 10.7354 6.57274 10.6848 6.59336 10.6238L6.75355 10.1522L6.32653 9.8584C6.27127 9.82028 6.29971 9.7386 6.36846 9.73812L6.8993 9.73436L7.06722 9.2651C7.08888 9.20432 7.18109 9.20432 7.20283 9.2651Z" fill="#F5F5F5"/>
<path d="M7.20283 11.7198L7.37075 12.1891L7.90159 12.1928C7.97034 12.1934 7.99878 12.275 7.94353 12.3131L7.5165 12.607L7.67669 13.0786C7.69749 13.1396 7.62281 13.1902 7.56686 13.1529L7.13503 12.8653L6.70319 13.1529C6.64724 13.1901 6.57274 13.1396 6.59336 13.0786L6.75355 12.607L6.32653 12.3131C6.27127 12.275 6.29971 12.1934 6.36846 12.1928L6.8993 12.1891L7.06722 11.7198C7.08888 11.6591 7.18109 11.6591 7.20283 11.7198Z" fill="#F5F5F5"/>
<path d="M7.20283 14.1746L7.37075 14.6439L7.90159 14.6476C7.97034 14.6482 7.99878 14.7298 7.94353 14.7679L7.5165 15.0618L7.67669 15.5334C7.69749 15.5944 7.62281 15.645 7.56686 15.6077L7.13503 15.32L6.70319 15.6077C6.64724 15.6449 6.57274 15.5945 6.59336 15.5334L6.75355 15.0618L6.32653 14.7679C6.27127 14.7298 6.29971 14.6482 6.36846 14.6476L6.8993 14.6439L7.06722 14.1746C7.08888 14.1138 7.18109 14.1138 7.20283 14.1746Z" fill="#F5F5F5"/>
<path d="M7.20283 16.6293L7.37075 17.0986L7.90159 17.1023C7.97034 17.1029 7.99878 17.1846 7.94353 17.2226L7.5165 17.5165L7.67669 17.9881C7.69749 18.0491 7.62281 18.0997 7.56686 18.0624L7.13503 17.7748L6.70319 18.0624C6.64724 18.0996 6.57274 18.0491 6.59336 17.9881L6.75355 17.5165L6.32653 17.2226C6.27127 17.1847 6.29971 17.1029 6.36846 17.1023L6.8993 17.0986L7.06722 16.6293C7.08888 16.5685 7.18109 16.5685 7.20283 16.6293Z" fill="#F5F5F5"/>
<path d="M7.20283 19.084L7.37075 19.5533L7.90159 19.5571C7.97034 19.5576 7.99878 19.6392 7.94353 19.6773L7.5165 19.9712L7.67669 20.4428C7.69749 20.5038 7.62281 20.5544 7.56686 20.5171L7.13503 20.2295L6.70319 20.5171C6.64724 20.5544 6.57274 20.5038 6.59336 20.4428L6.75355 19.9712L6.32653 19.6773C6.27127 19.6392 6.29971 19.5576 6.36846 19.5571L6.8993 19.5533L7.06722 19.084C7.08888 19.0233 7.18109 19.0233 7.20283 19.084Z" fill="#F5F5F5"/>
<path d="M9.24775 10.4686L9.41567 10.9378L9.94651 10.9416C10.0153 10.9422 10.0437 11.0238 9.98845 11.0619L9.56142 11.3558L9.72161 11.8274C9.74241 11.8884 9.66773 11.939 9.61178 11.9017L9.17995 11.614L8.74811 11.9017C8.69217 11.9389 8.61766 11.8884 8.63828 11.8274L8.79847 11.3558L8.37145 11.0619C8.31619 11.0238 8.34464 10.9422 8.41339 10.9416L8.94422 10.9378L9.11214 10.4686C9.13371 10.4079 9.22601 10.4079 9.24775 10.4686Z" fill="#F5F5F5"/>
<path d="M9.24775 12.9234L9.41567 13.3926L9.94651 13.3964C10.0153 13.397 10.0437 13.4786 9.98845 13.5167L9.56142 13.8106L9.72161 14.2822C9.74241 14.3432 9.66773 14.3938 9.61178 14.3565L9.17995 14.0688L8.74811 14.3565C8.69217 14.3937 8.61766 14.3433 8.63828 14.2822L8.79847 13.8106L8.37145 13.5167C8.31619 13.4787 8.34464 13.397 8.41339 13.3964L8.94422 13.3926L9.11214 12.9234C9.13371 12.8626 9.22601 12.8626 9.24775 12.9234Z" fill="#F5F5F5"/>
<path d="M9.24775 15.3781L9.41567 15.8474L9.94651 15.8511C10.0153 15.8517 10.0437 15.9333 9.98845 15.9714L9.56142 16.2653L9.72161 16.7369C9.74241 16.7979 9.66773 16.8485 9.61178 16.8112L9.17995 16.5235L8.74811 16.8112C8.69217 16.8484 8.61766 16.7979 8.63828 16.7369L8.79847 16.2653L8.37145 15.9714C8.31619 15.9333 8.34464 15.8517 8.41339 15.8511L8.94422 15.8474L9.11214 15.3781C9.13371 15.3173 9.22601 15.3173 9.24775 15.3781Z" fill="#F5F5F5"/>
<path d="M9.24775 17.8328L9.41567 18.3021L9.94651 18.3058C10.0153 18.3064 10.0437 18.388 9.98845 18.4261L9.56142 18.72L9.72161 19.1916C9.74241 19.2526 9.66773 19.3032 9.61178 19.2659L9.17995 18.9783L8.74811 19.2659C8.69217 19.3032 8.61766 19.2526 8.63828 19.1916L8.79847 18.72L8.37145 18.4261C8.31619 18.388 8.34464 18.3064 8.41339 18.3058L8.94422 18.3021L9.11214 17.8328C9.13371 17.7721 9.22601 17.7721 9.24775 17.8328Z" fill="#F5F5F5"/>
<path d="M11.2923 9.26511L11.4602 9.73437L11.991 9.73814C12.0598 9.7387 12.0882 9.82038 12.033 9.85841L11.6059 10.1522L11.7661 10.6238C11.7869 10.6848 11.7122 10.7354 11.6563 10.6981L11.2244 10.4106L10.7925 10.6982C10.7366 10.7355 10.6621 10.6849 10.6827 10.6239L10.8429 10.1523L10.4159 9.85849C10.3606 9.82038 10.3891 9.7387 10.4578 9.73822L10.9887 9.73445L11.1566 9.26519C11.1783 9.20433 11.2705 9.20433 11.2923 9.26511Z" fill="#F5F5F5"/>
<path d="M11.2923 11.7198L11.4602 12.1891L11.991 12.1928C12.0598 12.1934 12.0882 12.275 12.033 12.3131L11.6059 12.607L11.7661 13.0786C11.7869 13.1396 11.7122 13.1902 11.6563 13.1529L11.2244 12.8653L10.7925 13.1529C10.7366 13.1901 10.6621 13.1396 10.6827 13.0786L10.8429 12.607L10.4159 12.3131C10.3606 12.275 10.3891 12.1934 10.4578 12.1928L10.9887 12.1891L11.1566 11.7198C11.1783 11.6591 11.2705 11.6591 11.2923 11.7198Z" fill="#F5F5F5"/>
<path d="M11.2923 14.1746L11.4602 14.6439L11.991 14.6476C12.0598 14.6482 12.0882 14.7298 12.033 14.7679L11.6059 15.0618L11.7661 15.5334C11.7869 15.5944 11.7122 15.645 11.6563 15.6077L11.2244 15.32L10.7925 15.6076C10.7366 15.6448 10.6621 15.5943 10.6827 15.5333L10.8429 15.0617L10.4159 14.7678C10.3606 14.7297 10.3891 14.6481 10.4578 14.6475L10.9887 14.6438L11.1566 14.1745C11.1783 14.1138 11.2705 14.1138 11.2923 14.1746Z" fill="#F5F5F5"/>
<path d="M11.2923 16.6293L11.4602 17.0986L11.991 17.1023C12.0598 17.1029 12.0882 17.1846 12.033 17.2226L11.6059 17.5165L11.7661 17.9881C11.7869 18.0491 11.7122 18.0997 11.6563 18.0624L11.2244 17.7748L10.7925 18.0624C10.7366 18.0996 10.6621 18.0491 10.6827 17.9881L10.8429 17.5165L10.4159 17.2226C10.3606 17.1847 10.3891 17.1029 10.4578 17.1023L10.9887 17.0986L11.1566 16.6293C11.1783 16.5685 11.2705 16.5685 11.2923 16.6293Z" fill="#F5F5F5"/>
<path d="M11.2923 19.084L11.4602 19.5533L11.991 19.5571C12.0598 19.5576 12.0882 19.6392 12.033 19.6773L11.6059 19.9712L11.7661 20.4428C11.7869 20.5038 11.7122 20.5544 11.6563 20.5171L11.2244 20.2295L10.7925 20.5171C10.7366 20.5544 10.6621 20.5038 10.6827 20.4428L10.8429 19.9712L10.4159 19.6773C10.3606 19.6392 10.3891 19.5576 10.4578 19.5571L10.9887 19.5533L11.1566 19.084C11.1783 19.0233 11.2705 19.0233 11.2923 19.084Z" fill="#F5F5F5"/>
<path d="M13.3371 10.4686L13.505 10.9378L14.0359 10.9416C14.1046 10.9422 14.1331 11.0238 14.0778 11.0619L13.6508 11.3558L13.811 11.8274C13.8318 11.8884 13.7571 11.939 13.7011 11.9017L13.2693 11.614L12.8375 11.9017C12.7815 11.9389 12.707 11.8884 12.7276 11.8274L12.8878 11.3558L12.4608 11.0619C12.4055 11.0238 12.434 10.9422 12.5027 10.9416L13.0336 10.9378L13.2015 10.4686C13.2232 10.4079 13.3154 10.4079 13.3371 10.4686Z" fill="#F5F5F5"/>
<path d="M13.3371 12.9234L13.505 13.3926L14.0359 13.3964C14.1046 13.397 14.1331 13.4786 14.0778 13.5167L13.6508 13.8106L13.811 14.2822C13.8318 14.3432 13.7571 14.3938 13.7011 14.3565L13.2693 14.0688L12.8375 14.3565C12.7815 14.3937 12.707 14.3433 12.7276 14.2822L12.8878 13.8106L12.4608 13.5167C12.4055 13.4787 12.434 13.397 12.5027 13.3964L13.0336 13.3926L13.2015 12.9234C13.2232 12.8626 13.3154 12.8626 13.3371 12.9234Z" fill="#F5F5F5"/>
<path d="M13.3371 15.3781L13.505 15.8474L14.0359 15.8511C14.1046 15.8517 14.1331 15.9333 14.0778 15.9714L13.6508 16.2653L13.811 16.7369C13.8318 16.7979 13.7571 16.8485 13.7011 16.8112L13.2693 16.5235L12.8375 16.8112C12.7815 16.8484 12.707 16.7979 12.7276 16.7369L12.8878 16.2653L12.4608 15.9714C12.4055 15.9333 12.434 15.8517 12.5027 15.8511L13.0336 15.8474L13.2015 15.3781C13.2232 15.3173 13.3154 15.3173 13.3371 15.3781Z" fill="#F5F5F5"/>
<path d="M13.3371 17.8328L13.505 18.3021L14.0359 18.3058C14.1046 18.3064 14.1331 18.388 14.0778 18.4261L13.6508 18.72L13.811 19.1916C13.8318 19.2526 13.7571 19.3032 13.7011 19.2659L13.2693 18.9783L12.8375 19.2659C12.7815 19.3032 12.707 19.2526 12.7276 19.1916L12.8878 18.72L12.4608 18.4261C12.4055 18.388 12.434 18.3064 12.5027 18.3058L13.0336 18.3021L13.2015 17.8328C13.2232 17.7721 13.3154 17.7721 13.3371 17.8328Z" fill="#F5F5F5"/>
<path d="M15.382 9.2651L15.55 9.73436L16.0808 9.73812C16.1495 9.73868 16.178 9.82036 16.1227 9.8584L15.6957 10.1522L15.8559 10.6238C15.8767 10.6848 15.802 10.7354 15.7461 10.6981L15.3142 10.4105L14.8824 10.6981C14.8264 10.7354 14.7519 10.6848 14.7726 10.6238L14.9327 10.1522L14.5057 9.8584C14.4505 9.82028 14.4789 9.7386 14.5477 9.73812L15.0785 9.73436L15.2464 9.2651C15.268 9.20432 15.3603 9.20432 15.382 9.2651Z" fill="#F5F5F5"/>
<path d="M15.382 11.7198L15.55 12.1891L16.0808 12.1928C16.1495 12.1934 16.178 12.275 16.1227 12.3131L15.6957 12.607L15.8559 13.0786C15.8767 13.1396 15.802 13.1902 15.7461 13.1529L15.3142 12.8653L14.8824 13.1529C14.8264 13.1901 14.7519 13.1396 14.7726 13.0786L14.9327 12.607L14.5057 12.3131C14.4505 12.275 14.4789 12.1934 14.5477 12.1928L15.0785 12.1891L15.2464 11.7198C15.268 11.6591 15.3603 11.6591 15.382 11.7198Z" fill="#F5F5F5"/>
<path d="M15.382 14.1746L15.55 14.6439L16.0808 14.6476C16.1495 14.6482 16.178 14.7298 16.1227 14.7679L15.6957 15.0618L15.8559 15.5334C15.8767 15.5944 15.802 15.645 15.7461 15.6077L15.3142 15.32L14.8824 15.6077C14.8264 15.6449 14.7519 15.5945 14.7726 15.5334L14.9327 15.0618L14.5057 14.7679C14.4505 14.7298 14.4789 14.6482 14.5477 14.6476L15.0785 14.6439L15.2464 14.1746C15.268 14.1138 15.3603 14.1138 15.382 14.1746Z" fill="#F5F5F5"/>
<path d="M15.382 16.6293L15.55 17.0986L16.0808 17.1023C16.1495 17.1029 16.178 17.1846 16.1227 17.2226L15.6957 17.5165L15.8559 17.9881C15.8767 18.0491 15.802 18.0997 15.7461 18.0624L15.3142 17.7748L14.8824 18.0624C14.8264 18.0996 14.7519 18.0491 14.7726 17.9881L14.9327 17.5165L14.5057 17.2226C14.4505 17.1847 14.4789 17.1029 14.5477 17.1023L15.0785 17.0986L15.2464 16.6293C15.268 16.5685 15.3603 16.5685 15.382 16.6293Z" fill="#F5F5F5"/>
<path d="M15.382 19.084L15.55 19.5533L16.0808 19.5571C16.1495 19.5576 16.178 19.6392 16.1227 19.6773L15.6957 19.9712L15.8559 20.4428C15.8767 20.5038 15.802 20.5544 15.7461 20.5171L15.3142 20.2295L14.8824 20.5171C14.8264 20.5544 14.7519 20.5038 14.7726 20.4428L14.9327 19.9712L14.5057 19.6773C14.4505 19.6392 14.4789 19.5576 14.5477 19.5571L15.0785 19.5533L15.2464 19.084C15.268 19.0233 15.3603 19.0233 15.382 19.084Z" fill="#F5F5F5"/>
<path d="M17.4265 10.4686L17.5944 10.9378L18.1252 10.9416C18.194 10.9422 18.2224 11.0238 18.1672 11.0619L17.7401 11.3558L17.9003 11.8274C17.9211 11.8884 17.8464 11.939 17.7905 11.9017L17.3587 11.614L16.9268 11.9017C16.8709 11.9389 16.7964 11.8884 16.817 11.8274L16.9772 11.3558L16.5502 11.0619C16.4949 11.0238 16.5233 10.9422 16.5921 10.9416L17.1229 10.9378L17.2909 10.4686C17.3125 10.4079 17.4047 10.4079 17.4265 10.4686Z" fill="#F5F5F5"/>
<path d="M17.4265 12.9234L17.5944 13.3926L18.1252 13.3964C18.194 13.397 18.2224 13.4786 18.1672 13.5167L17.7401 13.8106L17.9003 14.2822C17.9211 14.3432 17.8464 14.3938 17.7905 14.3565L17.3587 14.0688L16.9268 14.3565C16.8709 14.3937 16.7964 14.3433 16.817 14.2822L16.9772 13.8106L16.5502 13.5167C16.4949 13.4787 16.5233 13.397 16.5921 13.3964L17.1229 13.3926L17.2909 12.9234C17.3125 12.8626 17.4047 12.8626 17.4265 12.9234Z" fill="#F5F5F5"/>
<path d="M17.4265 15.3781L17.5944 15.8474L18.1252 15.8511C18.194 15.8517 18.2224 15.9333 18.1672 15.9714L17.7401 16.2653L17.9003 16.7369C17.9211 16.7979 17.8464 16.8485 17.7905 16.8112L17.3587 16.5235L16.9268 16.8112C16.8709 16.8484 16.7964 16.7979 16.817 16.7369L16.9772 16.2653L16.5502 15.9714C16.4949 15.9333 16.5233 15.8517 16.5921 15.8511L17.1229 15.8474L17.2909 15.3781C17.3125 15.3173 17.4047 15.3173 17.4265 15.3781Z" fill="#F5F5F5"/>
<path d="M17.4265 17.8328L17.5944 18.3021L18.1252 18.3058C18.194 18.3064 18.2224 18.388 18.1672 18.4261L17.7401 18.72L17.9003 19.1916C17.9211 19.2526 17.8464 19.3032 17.7905 19.2659L17.3587 18.9783L16.9268 19.2659C16.8709 19.3032 16.7964 19.2526 16.817 19.1916L16.9772 18.72L16.5502 18.4261C16.4949 18.388 16.5233 18.3064 16.5921 18.3058L17.1229 18.3021L17.2909 17.8328C17.3125 17.7721 17.4047 17.7721 17.4265 17.8328Z" fill="#F5F5F5"/>
<path d="M19.4714 9.2651L19.6393 9.73436L20.1701 9.73812C20.2389 9.73868 20.2673 9.82036 20.2121 9.8584L19.7851 10.1522L19.9452 10.6238C19.966 10.6848 19.8914 10.7354 19.8354 10.6981L19.4036 10.4105L18.9717 10.6981C18.9158 10.7354 18.8413 10.6848 18.8619 10.6238L19.0221 10.1522L18.5951 9.8584C18.5398 9.82028 18.5683 9.7386 18.637 9.73812L19.1679 9.73436L19.3358 9.2651C19.3574 9.20432 19.4496 9.20432 19.4714 9.2651Z" fill="#F5F5F5"/>
<path d="M19.4714 11.7198L19.6393 12.1891L20.1701 12.1928C20.2389 12.1934 20.2673 12.275 20.2121 12.3131L19.7851 12.607L19.9452 13.0786C19.966 13.1396 19.8914 13.1902 19.8354 13.1529L19.4036 12.8653L18.9717 13.1529C18.9158 13.1901 18.8413 13.1396 18.8619 13.0786L19.0221 12.607L18.5951 12.3131C18.5398 12.275 18.5683 12.1934 18.637 12.1928L19.1679 12.1891L19.3358 11.7198C19.3574 11.6591 19.4496 11.6591 19.4714 11.7198Z" fill="#F5F5F5"/>
<path d="M19.4714 14.1746L19.6393 14.6439L20.1701 14.6476C20.2389 14.6482 20.2673 14.7298 20.2121 14.7679L19.7851 15.0618L19.9452 15.5334C19.966 15.5944 19.8914 15.645 19.8354 15.6077L19.4036 15.32L18.9717 15.6077C18.9158 15.6449 18.8413 15.5945 18.8619 15.5334L19.0221 15.0618L18.5951 14.7679C18.5398 14.7298 18.5683 14.6482 18.637 14.6476L19.1679 14.6439L19.3358 14.1746C19.3574 14.1138 19.4496 14.1138 19.4714 14.1746Z" fill="#F5F5F5"/>
<path d="M19.4714 16.6293L19.6393 17.0986L20.1701 17.1023C20.2389 17.1029 20.2673 17.1846 20.2121 17.2226L19.7851 17.5165L19.9452 17.9881C19.966 18.0491 19.8914 18.0997 19.8354 18.0624L19.4036 17.7748L18.9717 18.0624C18.9158 18.0996 18.8413 18.0491 18.8619 17.9881L19.0221 17.5165L18.5951 17.2226C18.5398 17.1847 18.5683 17.1029 18.637 17.1023L19.1679 17.0986L19.3358 16.6293C19.3574 16.5685 19.4496 16.5685 19.4714 16.6293Z" fill="#F5F5F5"/>
<path d="M19.4714 19.084L19.6393 19.5533L20.1701 19.5571C20.2389 19.5576 20.2673 19.6392 20.2121 19.6773L19.7851 19.9712L19.9452 20.4428C19.966 20.5038 19.8914 20.5544 19.8354 20.5171L19.4036 20.2295L18.9717 20.5171C18.9158 20.5544 18.8413 20.5038 18.8619 20.4428L19.0221 19.9712L18.5951 19.6773C18.5398 19.6392 18.5683 19.5576 18.637 19.5571L19.1679 19.5533L19.3358 19.084C19.3574 19.0233 19.4496 19.0233 19.4714 19.084Z" fill="#F5F5F5"/>
</g>
<defs>
<clipPath id="clip0">
<rect width="44" height="41" fill="white" transform="translate(0.983398 0.573669)"/>
</clipPath>
</defs>
</svg>
