<svg width="26" height="26" viewBox="0 0 26 26" fill="none" xmlns="http://www.w3.org/2000/svg">
<path d="M7.6001 20.8593C6.2251 20.8593 5.1001 21.9843 5.1001 23.3593C5.1001 24.7343 6.2251 25.8593 7.6001 25.8593C8.9751 25.8593 10.1001 24.7343 10.1001 23.3593C10.1001 21.9843 8.9751 20.8593 7.6001 20.8593ZM0.100098 0.859314V3.35931H2.6001L7.1001 12.8593L5.3501 15.8593C5.2251 16.2343 5.1001 16.7343 5.1001 17.1093C5.1001 18.4843 6.2251 19.6093 7.6001 19.6093H22.6001V17.1093H8.1001C7.9751 17.1093 7.8501 16.9843 7.8501 16.8593V16.7343L8.9751 14.6093H18.2251C19.2251 14.6093 19.9751 14.1093 20.3501 13.3593L24.8501 5.23431C25.1001 4.98431 25.1001 4.85931 25.1001 4.60931C25.1001 3.85931 24.6001 3.35931 23.8501 3.35931H5.3501L4.2251 0.859314H0.100098ZM20.1001 20.8593C18.7251 20.8593 17.6001 21.9843 17.6001 23.3593C17.6001 24.7343 18.7251 25.8593 20.1001 25.8593C21.4751 25.8593 22.6001 24.7343 22.6001 23.3593C22.6001 21.9843 21.4751 20.8593 20.1001 20.8593Z" fill="white"/>
</svg>
