<svg width="26" height="26" viewBox="0 0 26 26" fill="none" xmlns="http://www.w3.org/2000/svg">
<path d="M17.0173 3.8048C13.2035 -0.00898033 6.99625 -0.00898033 3.18247 3.8048C-0.630485 7.61941 -0.630485 13.8258 3.18247 17.6404C6.57875 21.0359 11.8683 21.3996 15.6796 18.7483C15.7598 19.1277 15.9433 19.4898 16.2385 19.785L21.7925 25.3391C22.6019 26.1468 23.9098 26.1468 24.7151 25.3391C25.5237 24.5305 25.5237 23.2226 24.7151 22.4165L19.161 16.8608C18.8675 16.5681 18.5046 16.3838 18.1251 16.3036C20.7781 12.4914 20.4144 7.20273 17.0173 3.8048ZM15.2637 15.8869C12.4164 18.7342 7.78249 18.7342 4.936 15.8869C2.09034 13.0396 2.09034 8.40648 4.936 5.55916C7.78249 2.71267 12.4164 2.71267 15.2637 5.55916C18.111 8.40648 18.111 13.0396 15.2637 15.8869Z" fill="white"/>
</svg>
