<svg width="101" height="100" viewBox="0 0 101 100" fill="none" xmlns="http://www.w3.org/2000/svg">
<path d="M100.1 50C100.1 22.4307 77.6694 0 50.1001 0C22.5308 0 0.100098 22.4307 0.100098 50C0.100098 77.5693 22.5308 100 50.1001 100C77.6694 100 100.1 77.5693 100.1 50ZM5.09602 50C5.09602 25.1835 25.2836 4.99592 50.1001 4.99592C74.9166 4.99592 95.1042 25.1835 95.1042 50C95.1042 74.8165 74.9166 95.0041 50.1001 95.0041C25.2836 95.0041 5.09602 74.8165 5.09602 50Z" fill="#645C70"/>
<path d="M51.874 73.4911L65.9237 59.4413C66.9025 58.4625 66.9025 56.8924 65.9237 55.9136C64.9449 54.9348 63.3748 54.9348 62.396 55.9136L52.6081 65.7015V28.2831C52.6081 26.8964 51.4865 25.7749 50.0999 25.7749C48.7133 25.7749 47.5918 26.8964 47.5918 28.2831V65.6811L37.8038 55.8932C36.825 54.9144 35.2549 54.9144 34.2761 55.8932C33.2973 56.872 33.2973 58.4421 34.2761 59.4209L48.3258 73.4707C48.8152 73.9601 49.4474 74.2048 50.0999 74.2048C50.7524 74.2048 51.3846 73.9804 51.874 73.4911Z" fill="#645C70"/>
</svg>
