<svg width="51" height="51" viewBox="0 0 51 51" fill="none" xmlns="http://www.w3.org/2000/svg">
<path d="M45.5005 20.4087H44.7923V19.6879C44.7923 8.85439 35.9785 0.0405273 25.1447 0.0405273C14.3109 0.0405273 5.49728 8.85439 5.49728 19.6882V20.4089H4.7891C2.29839 20.4089 0.271973 22.4353 0.271973 24.926V31.533C0.271973 34.0238 2.29839 36.0502 4.7891 36.0502H7.30748C7.78642 36.0502 8.19701 35.7603 8.3751 35.3469C11.3573 41.2815 15.6966 45.2056 15.9837 45.4613C16.1385 45.5992 16.3343 45.6696 16.5312 45.6696C16.5324 45.6696 16.5336 45.6701 16.5352 45.6696C16.9897 45.6696 17.3582 45.3011 17.3582 44.8466C17.3582 44.7385 17.3375 44.6355 17.2996 44.5409C17.2785 44.4653 17.2415 44.33 17.1943 44.1454C19.2233 46.6926 21.4008 48.1989 23.0539 49.0636C24.2754 49.7027 25.652 50.0405 27.0349 50.0405C28.4177 50.0405 29.7946 49.7027 31.0161 49.0636C32.5945 48.2378 34.6504 46.823 36.599 44.4804C40.2833 43.138 43.0907 39.9554 43.9037 36.0502H45.5005C47.9912 36.0502 50.0176 34.0238 50.0176 31.533V24.926C50.0176 22.4351 47.9912 20.4087 45.5005 20.4087ZM9.24184 12.8275C11.9046 6.67917 18.0292 2.36547 25.1447 2.36547C32.9881 2.36547 39.6268 7.60706 41.752 14.77C40.825 13.8784 39.8118 13.368 38.9193 13.1858C38.2871 11.3839 37.356 10.2663 37.1507 10.0343C36.7615 9.51095 33.1376 4.925 25.7124 4.925C23.1689 4.925 20.4509 5.47648 17.6344 6.56432C15.6252 7.34015 11.9964 9.155 9.24184 12.8275ZM30.253 47.6051C29.2661 48.1215 28.1534 48.3945 27.0349 48.3945C25.9166 48.3945 24.8038 48.1215 23.8169 47.6051C21.7933 46.5464 18.9013 44.4242 16.6168 40.3269C16.5715 40.2458 16.5296 40.1621 16.4854 40.08C16.1811 36.9416 16.3982 32.9659 18.8908 30.8735C20.821 29.2532 24.0692 28.4988 27.2104 27.7692C31.1435 26.8557 35.1875 25.9146 37.4155 23.2521C38.1158 23.9079 38.7056 24.7428 38.9397 25.7849C39.7386 29.3404 38.7135 32.3872 38.6989 32.43C38.5875 32.7504 38.6838 33.1061 38.9416 33.3265C39.0941 33.4567 39.2843 33.5237 39.4763 33.5237C39.6096 33.5237 39.7437 33.4913 39.8662 33.4253C39.8748 33.4207 39.8951 33.4093 39.9204 33.3949C39.4038 35.8065 38.624 38.2275 37.4534 40.3269C37.1037 40.954 36.7389 41.5294 36.366 42.0671C35.2398 42.5649 33.9962 42.8434 32.688 42.8434H31.4846C31.011 41.5754 29.7911 40.6682 28.3598 40.6682H25.1814C23.341 40.6682 21.8437 42.1655 21.8437 44.0059C21.8437 45.8463 23.341 47.3436 25.1814 47.3436H28.3598C29.7911 47.3436 31.0112 46.4364 31.4846 45.1684H32.688C33.0425 45.1684 33.3931 45.1516 33.7393 45.12C32.4834 46.2867 31.2604 47.0781 30.253 47.6051ZM39.6577 39.6022C40.7072 37.2938 41.3863 34.7668 41.8194 32.3252V33.7118C41.8194 35.9551 41.0047 38.0108 39.6577 39.6022Z" fill="#645C70"/>
</svg>
