<svg width="51" height="51" viewBox="0 0 51 51" fill="none" xmlns="http://www.w3.org/2000/svg">
<g clip-path="url(#clip0)">
<path d="M26.5366 0.446777C23.3051 0.446777 20.5796 3.17226 20.5796 6.4038C20.5796 9.63533 23.3051 12.3608 26.5366 12.3608C29.7681 12.3608 32.396 9.63533 32.396 6.4038C32.396 3.17226 29.7681 0.446777 26.5366 0.446777Z" fill="#645C70"/>
<path d="M33.0397 12.3608C31.4298 14.1459 29.1241 15.2905 26.5366 15.2905C23.9491 15.2905 21.5457 14.1459 19.9358 12.3608C18.5304 13.9193 17.6499 15.961 17.6499 18.2202V19.685C17.6499 20.4947 18.3051 21.1499 19.1147 21.1499H33.8608C34.6704 21.1499 35.3256 20.4947 35.3256 19.685V18.2202C35.3256 15.961 34.4452 13.9193 33.0397 12.3608Z" fill="#645C70"/>
<path d="M14.2242 45.408L6.75932 30.4418C6.03852 28.9965 4.28423 28.4072 2.83726 29.1241L0.886188 30.0906C0.159725 30.4508 -0.13588 31.3338 0.226717 32.0589L9.01576 49.637C9.37719 50.3619 10.2564 50.6504 10.977 50.295L12.903 49.3408C14.3556 48.6213 14.9477 46.8587 14.2242 45.408Z" fill="#645C70"/>
<path d="M48.8709 24.6362C47.6697 23.7573 45.9997 23.9331 45.0037 25.017L36.9959 34.8608C36.4393 35.4467 35.3846 35.7983 34.828 35.7983H28.0017C27.1813 35.7983 26.5369 35.1538 26.5369 34.3334C26.5369 33.513 27.1813 32.8686 28.0017 32.8686C29.9636 32.8686 32.1357 32.8686 33.8611 32.8686C35.4724 32.8686 36.7908 31.5502 36.7908 29.9389C36.7908 28.3276 35.4724 27.0092 33.8611 27.0092C26.9816 27.0092 33.5437 27.0092 26.1853 27.0092C25.4552 27.0092 25.0912 26.5462 24.5154 26.0423C22.2489 24.0028 18.8563 23.0202 15.4218 23.8163C13.5147 24.2583 12.2287 25.0287 10.9244 26.0617L10.881 26.0264L8.76221 27.8911L17.0888 44.5873H19.5544H33.8611C36.615 44.5873 39.2518 43.269 40.8924 41.0717L49.4861 28.767C50.4528 27.4779 50.1892 25.6031 48.8709 24.6362Z" fill="#645C70"/>
</g>
<defs>
<clipPath id="clip0">
<rect width="50" height="50" fill="white" transform="translate(0.0693359 0.446777)"/>
</clipPath>
</defs>
</svg>
