<svg width="35" height="51" viewBox="0 0 35 51" fill="none" xmlns="http://www.w3.org/2000/svg">
<path d="M9.89071 10.9448C9.89071 6.69191 13.3506 3.23202 17.6035 3.23202C21.8563 3.23202 25.3162 6.69191 25.3162 10.9448V17.0618H28.5077V10.9448C28.5077 4.93212 23.6161 0.0405273 17.6035 0.0405273C11.5908 0.0405273 6.69922 4.93212 6.69922 10.9448V17.0618H9.89071V10.9448Z" fill="#645C70"/>
<path d="M0.848145 20.2533V50.0405H34.3588V20.2533H0.848145ZM19.1992 36.0041V41.7017H16.0077V36.0041C14.7498 35.4065 13.8801 34.1248 13.8801 32.6396C13.8801 30.5832 15.5471 28.9162 17.6035 28.9162C19.6598 28.9162 21.3269 30.5832 21.3269 32.6396C21.3269 34.1248 20.4571 35.4066 19.1992 36.0041Z" fill="#645C70"/>
</svg>
