<svg width="51" height="51" viewBox="0 0 51 51" fill="none" xmlns="http://www.w3.org/2000/svg">
<path d="M25.6064 0.816925C11.8209 0.816925 0.606445 12.0314 0.606445 25.8169C0.606445 39.6017 11.8209 50.8169 25.6064 50.8169C39.3904 50.8169 50.6041 39.6017 50.6041 25.8169C50.6041 12.0314 39.3904 0.816925 25.6064 0.816925ZM18.3561 12.5447C21.6803 12.5447 24.3857 15.2493 24.3857 18.5751C24.3857 21.8993 21.6803 24.6048 18.3561 24.6048C15.0307 24.6048 12.3256 21.8993 12.3256 18.5751C12.3256 15.2493 15.0311 12.5447 18.3561 12.5447ZM16.5229 37.1107C16.2182 37.4161 15.817 37.5693 15.4174 37.5693C15.0174 37.5693 14.617 37.4161 14.3115 37.1107C13.701 36.5001 13.701 35.5095 14.3115 34.8997L34.6877 14.5228C35.2978 13.9122 36.2881 13.9122 36.899 14.5228C37.5096 15.1333 37.5096 16.124 36.899 16.7341L16.5229 37.1107ZM32.8225 39.07C29.4975 39.07 26.792 36.365 26.792 33.0396C26.792 29.7154 29.4975 27.0099 32.8225 27.0099C36.1471 27.0099 38.8521 29.7154 38.8521 33.0396C38.8518 36.365 36.1467 39.07 32.8225 39.07Z" fill="#645C70"/>
</svg>
