<svg width="39" height="51" viewBox="0 0 39 51" fill="none" xmlns="http://www.w3.org/2000/svg">
<path d="M36.3716 46.6806H33.3947L33.3943 41.3677C33.3943 36.0412 30.4721 31.1444 25.1661 27.5796C24.4947 27.1281 24.0775 26.1571 24.0775 25.0451C24.0775 23.9332 24.4947 22.9621 25.1657 22.5109C30.4721 18.9456 33.3943 14.049 33.3947 8.72238V3.40958H36.3716C37.3006 3.40958 38.0538 2.65622 38.0538 1.72726C38.0538 0.798304 37.3004 0.045105 36.3716 0.045105H1.85647C0.927515 0.045105 0.174316 0.798472 0.174316 1.72726C0.174316 2.65638 0.927683 3.40958 1.85647 3.40958H4.83341V8.72238C4.83341 14.0493 7.75546 18.9461 13.0615 22.5108C13.7331 22.9621 14.1502 23.933 14.1502 25.0451C14.1502 26.1571 13.7331 27.1281 13.0617 27.5793C7.75546 31.1443 4.83341 36.0411 4.83341 41.3677V46.6806H1.85647C0.927515 46.6806 0.174316 47.434 0.174316 48.3629C0.174316 49.2921 0.927683 50.0451 1.85647 50.0451H36.3716C37.3006 50.0451 38.0538 49.2919 38.0538 48.3629C38.0538 47.4338 37.3004 46.6806 36.3716 46.6806ZM17.4319 18.6246C17.4319 17.6956 18.1851 16.9422 19.114 16.9422C20.043 16.9422 20.7962 17.6956 20.7962 18.6246V21.5983C20.7962 22.5274 20.043 23.2805 19.114 23.2805C18.1851 23.2805 17.4319 22.5273 17.4319 21.5983V18.6246ZM17.9243 29.3306C18.2371 29.018 18.6711 28.8379 19.1135 28.8379C19.556 28.8379 19.99 29.0178 20.3028 29.3306C20.6172 29.6436 20.7957 30.0778 20.7957 30.52C20.7957 30.9623 20.6172 31.3965 20.3028 31.7092C19.99 32.022 19.556 32.2022 19.1135 32.2022C18.6711 32.2022 18.2371 32.0222 17.9243 31.7092C17.6113 31.3965 17.4314 30.9623 17.4314 30.52C17.4314 30.0778 17.6112 29.6438 17.9243 29.3306ZM8.75041 46.697C10.1228 41.4939 17.195 35.8323 18.0778 35.1422C18.6863 34.6665 19.5411 34.6661 20.1501 35.1422C21.0329 35.8325 28.1049 41.4939 29.4773 46.697H8.75041Z" fill="#645C70"/>
</svg>
