<svg width="51" height="51" viewBox="0 0 51 51" fill="none" xmlns="http://www.w3.org/2000/svg">
<g clip-path="url(#clip0)">
<path d="M17.3349 6.00925L19.8122 8.48652L22.5 11.1747C23.086 11.7603 23.8645 12.0826 24.6927 12.0826C24.6931 12.0826 24.6931 12.0826 24.6931 12.0826C25.5213 12.0826 26.2999 11.7599 26.8862 11.1744C28.0951 9.9651 28.0954 7.99709 26.8862 6.78745L21.7195 1.6212C21.1336 1.03526 20.355 0.71254 19.5261 0.71254C18.6979 0.71254 17.9189 1.03526 17.333 1.62082C16.1279 2.82627 16.1241 4.78511 17.3212 5.9959C17.3257 6.00048 17.3303 6.00467 17.3349 6.00925Z" fill="#645C70"/>
<path d="M10.8764 12.4675L12.4927 14.0838L16.0419 17.6326C16.0435 17.6337 16.0446 17.6353 16.0461 17.6368L17.316 18.9067C17.3218 18.9124 17.3279 18.9181 17.3336 18.9239C17.9192 19.5098 18.6981 19.8325 19.5267 19.8325C20.3548 19.8325 21.1338 19.5098 21.7201 18.9242C22.3057 18.3383 22.6284 17.5593 22.6284 16.7312C22.6284 15.9026 22.3057 15.1233 21.7197 14.5377L20.4407 13.2583C20.4357 13.2537 20.4311 13.2495 20.4269 13.2449L17.4663 10.284L15.2645 8.08249C15.2634 8.08135 15.2626 8.08058 15.2614 8.07944C15.2614 8.07944 15.2614 8.07906 15.2611 8.07906C14.6751 7.4935 13.8969 7.17078 13.0688 7.17078C12.2402 7.17078 11.4609 7.4935 10.8749 8.07944C9.66833 9.28641 9.66605 11.2491 10.8681 12.4591C10.8711 12.4618 10.8738 12.4648 10.8764 12.4675Z" fill="#645C70"/>
<path d="M4.42726 18.9346L9.56796 24.0749C9.5733 24.0802 9.57864 24.0856 9.58398 24.0905C10.1695 24.6765 10.9481 24.9992 11.7767 24.9992C12.6052 24.9992 13.3846 24.6765 13.9705 24.0909C15.1782 22.8824 15.1794 20.9171 13.9732 19.7074L10.7097 16.4444L8.80349 14.5378C8.21755 13.9518 7.43821 13.6291 6.61004 13.6291C5.78148 13.6291 5.0029 13.9518 4.41734 14.5374C3.83102 15.1237 3.5083 15.9027 3.5083 16.7308C3.5083 17.5594 3.83102 18.3384 4.41696 18.9239C4.4204 18.9277 4.42383 18.9312 4.42726 18.9346Z" fill="#645C70"/>
<path d="M5.07355 32.497C5.53933 32.9582 6.12603 33.2538 6.76156 33.3549C6.77453 33.3572 6.78711 33.3591 6.7997 33.3614C6.94962 33.3835 7.10221 33.3946 7.2567 33.3946C8.08487 33.3946 8.86384 33.0723 9.44977 32.4863C10.6587 31.2771 10.6587 29.3091 9.44939 28.0998L5.5748 24.2252C4.98848 23.6393 4.20952 23.3165 3.38097 23.3165C2.55242 23.3165 1.77345 23.6393 1.18752 24.2248C-0.0213625 25.4341 -0.021744 27.4021 1.1879 28.611C1.19324 28.6167 1.19858 28.622 1.20392 28.6277L5.06173 32.4852C5.06554 32.489 5.06974 32.4928 5.07355 32.497Z" fill="#645C70"/>
<path d="M49.3737 24.2238C48.3685 23.219 46.8148 23.0244 45.5952 23.7504C44.9612 24.1284 44.1453 23.9754 43.6909 23.3937L43.6043 23.2823C43.1489 22.6994 43.1996 21.8682 43.723 21.3452L46.1434 18.924C46.1514 18.9164 46.1594 18.9088 46.1674 18.9008C46.7389 18.3175 47.0532 17.5481 47.0532 16.7302C47.0532 15.902 46.7305 15.1227 46.1445 14.5367C45.5586 13.9508 44.7796 13.6285 43.9515 13.6285C43.1229 13.6285 42.344 13.9512 41.7576 14.5371C41.1858 15.1093 40.2581 15.1093 39.6859 14.5371C39.4002 14.251 39.2571 13.876 39.2571 13.501C39.2571 13.1264 39.4002 12.7515 39.6863 12.4654C40.8955 11.2561 40.8955 9.28809 39.6863 8.07845C38.477 6.86957 36.509 6.86957 35.2997 8.07845C34.7279 8.65065 33.8002 8.65065 33.228 8.07845C32.9422 7.79235 32.7988 7.41736 32.7988 7.04276C32.7988 6.66777 32.9422 6.29279 33.2283 6.00669C33.8143 5.42113 34.137 4.64217 34.137 3.81361C34.137 2.98506 33.8143 2.20648 33.2283 1.62054C32.0191 0.410902 30.0511 0.411283 28.8414 1.62054L27.3526 3.10942L28.9582 4.71541C31.3096 7.06717 31.3092 10.8937 28.9578 13.2451C27.9633 14.24 26.6831 14.8442 25.3018 14.9815C25.4704 15.5411 25.5581 16.129 25.5581 16.7302C25.5581 18.3415 24.9306 19.856 23.7912 20.9954C22.6517 22.1345 21.1369 22.7616 19.5263 22.7616C18.924 22.7616 18.3354 22.6739 17.7746 22.5045C17.6403 23.8404 17.0636 25.1405 16.0424 26.162C15.1394 27.0638 14.0019 27.6433 12.7678 27.8462C13.7467 30.0595 13.3324 32.7458 11.5216 34.5574C10.3813 35.6969 8.86729 36.3236 7.25673 36.3236C7.25634 36.3236 7.25634 36.3236 7.25634 36.3236C7.19035 36.3236 7.12474 36.321 7.05912 36.3191L4.66044 38.7177C4.19009 39.1885 3.95129 39.8511 3.98867 40.5839C4.02911 41.3728 4.37777 42.1338 4.97134 42.727L11.496 49.252C12.687 50.443 14.6252 50.443 15.8162 49.252L19.5153 45.5529L20.929 45.1734C26.7128 46.7179 32.9331 45.0513 37.1617 40.8231L45.4804 32.504C45.4869 32.4975 45.4934 32.491 45.4999 32.4841L49.3737 28.6103C50.5829 27.4014 50.5829 25.4334 49.3737 24.2238Z" fill="#645C70"/>
<path d="M44.6559 37.4733L39.2333 42.8959C37.3626 44.7662 35.1428 46.236 32.7163 47.2237L34.7453 49.2527C35.9363 50.4437 37.8745 50.4437 39.0655 49.2527L45.5905 42.728C46.7617 41.5573 47.042 39.8594 46.2032 39.0205C45.6241 38.4415 45.0878 37.9051 44.6559 37.4733Z" fill="#645C70"/>
</g>
<defs>
<clipPath id="clip0">
<rect width="50" height="50" fill="white" transform="translate(0.378418 0.419586)"/>
</clipPath>
</defs>
</svg>
